{
    "asset" : {
        "generator" : "Khronos glTF Blender I/O v1.7.33",
        "version" : "2.0"
    },
    "scene" : 0,
    "scenes" : [
        {
            "name" : "Scene",
            "nodes" : [
                0
            ]
        }
    ],
    "nodes" : [
        {
            "mesh" : 0,
            "name" : "CROWN"
        }
    ],
    "materials" : [
        {
            "doubleSided" : true,
            "name" : "Crown",
            "pbrMetallicRoughness" : {
                "baseColorFactor" : [
                    0.24111121892929077,
                    0.5972136855125427,
                    0.830769956111908,
                    1
                ],
                "metallicFactor" : 0,
                "roughnessFactor" : 0.32758620381355286
            }
        }
    ],
    "meshes" : [
        {
            "name" : "CROWN",
            "primitives" : [
                {
                    "attributes" : {
                        "POSITION" : 0,
                        "NORMAL" : 1
                    },
                    "indices" : 2,
                    "material" : 0
                }
            ]
        }
    ],
    "accessors" : [
        {
            "bufferView" : 0,
            "componentType" : 5126,
            "count" : 47655,
            "max" : [
                3.018245220184326,
                5.543694019317627,
                3.1418449878692627
            ],
            "min" : [
                -3.009826183319092,
                0.009877561591565609,
                -3.144890785217285
            ],
            "type" : "VEC3"
        },
        {
            "bufferView" : 1,
            "componentType" : 5126,
            "count" : 47655,
            "type" : "VEC3"
        },
        {
            "bufferView" : 2,
            "componentType" : 5123,
            "count" : 47850,
            "type" : "SCALAR"
        }
    ],
    "bufferViews" : [
        {
            "buffer" : 0,
            "byteLength" : 571860,
            "byteOffset" : 0
        },
        {
            "buffer" : 0,
            "byteLength" : 571860,
            "byteOffset" : 571860
        },
        {
            "buffer" : 0,
            "byteLength" : 95700,
            "byteOffset" : 1143720
        }
    ],
    "buffers" : [
        {
            "byteLength" : 1239420,
            "uri" : "data:application/octet-stream;base64,"
        }
    ]
}
