{
    "asset" : {
        "generator" : "Khronos glTF Blender I/O v1.7.33",
        "version" : "2.0"
    },
    "scene" : 0,
    "scenes" : [
        {
            "name" : "Scene",
            "nodes" : [
                1,
                2,
                3,
                4,
                5,
                6
            ]
        }
    ],
    "nodes" : [
        {
            "mesh" : 0,
            "name" : "Icing"
        },
        {
            "children" : [
                0
            ],
            "mesh" : 1,
            "name" : "Donut",
            "rotation" : [
                -0.4658254384994507,
                -0.38273733854293823,
                -0.18167749047279358,
                0.7768604159355164
            ],
            "translation" : [
                0,
                0.01998850516974926,
                0
            ]
        },
        {
            "mesh" : 2,
            "name" : "Sprinkles5",
            "translation" : [
                -0.09454948455095291,
                0.03469628468155861,
                -0.020679090172052383
            ]
        },
        {
            "mesh" : 3,
            "name" : "Sprinkles4",
            "translation" : [
                -0.08922670781612396,
                0.03463076800107956,
                -0.020627297461032867
            ]
        },
        {
            "mesh" : 4,
            "name" : "Sprinkles3",
            "translation" : [
                -0.08425997197628021,
                0.03463077172636986,
                -0.02075577899813652
            ]
        },
        {
            "mesh" : 5,
            "name" : "Sprinkles2",
            "translation" : [
                -0.07914234697818756,
                0.03463112935423851,
                -0.020911376923322678
            ]
        },
        {
            "mesh" : 6,
            "name" : "Sprinkles1",
            "translation" : [
                -0.07328300923109055,
                0.03463077172636986,
                -0.02062699943780899
            ]
        }
    ],
    "animations" : [
        {
            "channels" : [
                {
                    "sampler" : 0,
                    "target" : {
                        "node" : 1,
                        "path" : "rotation"
                    }
                }
            ],
            "name" : "DonutAction",
            "samplers" : [
                {
                    "input" : 27,
                    "interpolation" : "LINEAR",
                    "output" : 28
                }
            ]
        }
    ],
    "materials" : [
        {
            "doubleSided" : true,
            "name" : "Frosting",
            "pbrMetallicRoughness" : {
                "baseColorFactor" : [
                    0.7991033792495728,
                    0.13286824524402618,
                    0.21586059033870697,
                    1
                ],
                "metallicFactor" : 0,
                "roughnessFactor" : 0.20472441613674164
            }
        },
        {
            "doubleSided" : true,
            "name" : "Material.002",
            "pbrMetallicRoughness" : {
                "baseColorTexture" : {
                    "index" : 0
                },
                "metallicFactor" : 0,
                "roughnessFactor" : 0.5
            }
        },
        {
            "doubleSided" : true,
            "name" : "Sprinkles",
            "pbrMetallicRoughness" : {
                "metallicFactor" : 0,
                "roughnessFactor" : 0.5
            }
        }
    ],
    "meshes" : [
        {
            "name" : "Torus.003",
            "primitives" : [
                {
                    "attributes" : {
                        "POSITION" : 0,
                        "NORMAL" : 1,
                        "TEXCOORD_0" : 2
                    },
                    "indices" : 3,
                    "material" : 0
                }
            ]
        },
        {
            "name" : "Torus.002",
            "primitives" : [
                {
                    "attributes" : {
                        "POSITION" : 4,
                        "NORMAL" : 5,
                        "TEXCOORD_0" : 6
                    },
                    "indices" : 7,
                    "material" : 1
                }
            ]
        },
        {
            "name" : "Cylinder.006",
            "primitives" : [
                {
                    "attributes" : {
                        "POSITION" : 8,
                        "NORMAL" : 9,
                        "TEXCOORD_0" : 10
                    },
                    "indices" : 11,
                    "material" : 2
                }
            ]
        },
        {
            "name" : "Cylinder.005",
            "primitives" : [
                {
                    "attributes" : {
                        "POSITION" : 12,
                        "NORMAL" : 13,
                        "TEXCOORD_0" : 14
                    },
                    "indices" : 15,
                    "material" : 2
                }
            ]
        },
        {
            "name" : "Cylinder.002",
            "primitives" : [
                {
                    "attributes" : {
                        "POSITION" : 16,
                        "NORMAL" : 17,
                        "TEXCOORD_0" : 18
                    },
                    "indices" : 19,
                    "material" : 2
                }
            ]
        },
        {
            "name" : "Cylinder.001",
            "primitives" : [
                {
                    "attributes" : {
                        "POSITION" : 20,
                        "NORMAL" : 21,
                        "TEXCOORD_0" : 22
                    },
                    "indices" : 23,
                    "material" : 2
                }
            ]
        },
        {
            "name" : "Cylinder.003",
            "primitives" : [
                {
                    "attributes" : {
                        "POSITION" : 24,
                        "NORMAL" : 25,
                        "TEXCOORD_0" : 26
                    },
                    "indices" : 19,
                    "material" : 2
                }
            ]
        }
    ],
    "textures" : [
        {
            "sampler" : 0,
            "source" : 0
        }
    ],
    "images" : [
        {
            "bufferView" : 8,
            "mimeType" : "image/png",
            "name" : "donutForeskin"
        }
    ],
    "accessors" : [
        {
            "bufferView" : 0,
            "componentType" : 5126,
            "count" : 11701,
            "max" : [
                0.049415845423936844,
                0.022628681734204292,
                0.05048698931932449
            ],
            "min" : [
                -0.04983272776007652,
                -0.008811859413981438,
                -0.04899154230952263
            ],
            "type" : "VEC3"
        },
        {
            "bufferView" : 1,
            "componentType" : 5126,
            "count" : 11701,
            "type" : "VEC3"
        },
        {
            "bufferView" : 2,
            "componentType" : 5126,
            "count" : 11701,
            "type" : "VEC2"
        },
        {
            "bufferView" : 3,
            "componentType" : 5123,
            "count" : 65856,
            "type" : "SCALAR"
        },
        {
            "bufferView" : 4,
            "componentType" : 5126,
            "count" : 2831,
            "max" : [
                0.04813890904188156,
                0.02107183448970318,
                0.04928328096866608
            ],
            "min" : [
                -0.04799788072705269,
                -0.0199419017881155,
                -0.04799159988760948
            ],
            "type" : "VEC3"
        },
        {
            "bufferView" : 5,
            "componentType" : 5126,
            "count" : 2831,
            "type" : "VEC3"
        },
        {
            "bufferView" : 6,
            "componentType" : 5126,
            "count" : 2831,
            "type" : "VEC2"
        },
        {
            "bufferView" : 7,
            "componentType" : 5123,
            "count" : 15360,
            "type" : "SCALAR"
        },
        {
            "bufferView" : 9,
            "componentType" : 5126,
            "count" : 60,
            "max" : [
                0.0014957375824451447,
                0.0012090160744264722,
                0.0032807607203722
            ],
            "min" : [
                -0.001389465294778347,
                -0.0011816518381237984,
                -0.0030006798915565014
            ],
            "type" : "VEC3"
        },
        {
            "bufferView" : 10,
            "componentType" : 5126,
            "count" : 60,
            "type" : "VEC3"
        },
        {
            "bufferView" : 11,
            "componentType" : 5126,
            "count" : 60,
            "type" : "VEC2"
        },
        {
            "bufferView" : 12,
            "componentType" : 5123,
            "count" : 228,
            "type" : "SCALAR"
        },
        {
            "bufferView" : 13,
            "componentType" : 5126,
            "count" : 70,
            "max" : [
                0.0012820415431633592,
                0.0011161379516124725,
                0.004744872450828552
            ],
            "min" : [
                -0.001260297722183168,
                -0.0011161379516124725,
                -0.004744872450828552
            ],
            "type" : "VEC3"
        },
        {
            "bufferView" : 14,
            "componentType" : 5126,
            "count" : 70,
            "type" : "VEC3"
        },
        {
            "bufferView" : 15,
            "componentType" : 5126,
            "count" : 70,
            "type" : "VEC2"
        },
        {
            "bufferView" : 16,
            "componentType" : 5123,
            "count" : 276,
            "type" : "SCALAR"
        },
        {
            "bufferView" : 17,
            "componentType" : 5126,
            "count" : 52,
            "max" : [
                0.0011161407455801964,
                0.0011161379516124725,
                0.002239224500954151
            ],
            "min" : [
                -0.0011161351576447487,
                -0.0011161379516124725,
                -0.002239224500954151
            ],
            "type" : "VEC3"
        },
        {
            "bufferView" : 18,
            "componentType" : 5126,
            "count" : 52,
            "type" : "VEC3"
        },
        {
            "bufferView" : 19,
            "componentType" : 5126,
            "count" : 52,
            "type" : "VEC2"
        },
        {
            "bufferView" : 20,
            "componentType" : 5123,
            "count" : 180,
            "type" : "SCALAR"
        },
        {
            "bufferView" : 21,
            "componentType" : 5126,
            "count" : 61,
            "max" : [
                0.0014556471724063158,
                0.0011235189158469439,
                0.0033574439585208893
            ],
            "min" : [
                -0.001295420341193676,
                -0.0011225235648453236,
                -0.0033709851559251547
            ],
            "type" : "VEC3"
        },
        {
            "bufferView" : 22,
            "componentType" : 5126,
            "count" : 61,
            "type" : "VEC3"
        },
        {
            "bufferView" : 23,
            "componentType" : 5126,
            "count" : 61,
            "type" : "VEC2"
        },
        {
            "bufferView" : 24,
            "componentType" : 5123,
            "count" : 228,
            "type" : "SCALAR"
        },
        {
            "bufferView" : 25,
            "componentType" : 5126,
            "count" : 52,
            "max" : [
                0.0011161407455801964,
                0.0011161379516124725,
                0.004744872450828552
            ],
            "min" : [
                -0.0011161351576447487,
                -0.0011161379516124725,
                -0.004744872450828552
            ],
            "type" : "VEC3"
        },
        {
            "bufferView" : 26,
            "componentType" : 5126,
            "count" : 52,
            "type" : "VEC3"
        },
        {
            "bufferView" : 27,
            "componentType" : 5126,
            "count" : 52,
            "type" : "VEC2"
        },
        {
            "bufferView" : 28,
            "componentType" : 5126,
            "count" : 301,
            "max" : [
                10.033333333333333
            ],
            "min" : [
                0.03333333333333333
            ],
            "type" : "SCALAR"
        },
        {
            "bufferView" : 29,
            "componentType" : 5126,
            "count" : 301,
            "type" : "VEC4"
        }
    ],
    "bufferViews" : [
        {
            "buffer" : 0,
            "byteLength" : 140412,
            "byteOffset" : 0
        },
        {
            "buffer" : 0,
            "byteLength" : 140412,
            "byteOffset" : 140412
        },
        {
            "buffer" : 0,
            "byteLength" : 93608,
            "byteOffset" : 280824
        },
        {
            "buffer" : 0,
            "byteLength" : 131712,
            "byteOffset" : 374432
        },
        {
            "buffer" : 0,
            "byteLength" : 33972,
            "byteOffset" : 506144
        },
        {
            "buffer" : 0,
            "byteLength" : 33972,
            "byteOffset" : 540116
        },
        {
            "buffer" : 0,
            "byteLength" : 22648,
            "byteOffset" : 574088
        },
        {
            "buffer" : 0,
            "byteLength" : 30720,
            "byteOffset" : 596736
        },
        {
            "buffer" : 0,
            "byteLength" : 43527,
            "byteOffset" : 627456
        },
        {
            "buffer" : 0,
            "byteLength" : 720,
            "byteOffset" : 670984
        },
        {
            "buffer" : 0,
            "byteLength" : 720,
            "byteOffset" : 671704
        },
        {
            "buffer" : 0,
            "byteLength" : 480,
            "byteOffset" : 672424
        },
        {
            "buffer" : 0,
            "byteLength" : 456,
            "byteOffset" : 672904
        },
        {
            "buffer" : 0,
            "byteLength" : 840,
            "byteOffset" : 673360
        },
        {
            "buffer" : 0,
            "byteLength" : 840,
            "byteOffset" : 674200
        },
        {
            "buffer" : 0,
            "byteLength" : 560,
            "byteOffset" : 675040
        },
        {
            "buffer" : 0,
            "byteLength" : 552,
            "byteOffset" : 675600
        },
        {
            "buffer" : 0,
            "byteLength" : 624,
            "byteOffset" : 676152
        },
        {
            "buffer" : 0,
            "byteLength" : 624,
            "byteOffset" : 676776
        },
        {
            "buffer" : 0,
            "byteLength" : 416,
            "byteOffset" : 677400
        },
        {
            "buffer" : 0,
            "byteLength" : 360,
            "byteOffset" : 677816
        },
        {
            "buffer" : 0,
            "byteLength" : 732,
            "byteOffset" : 678176
        },
        {
            "buffer" : 0,
            "byteLength" : 732,
            "byteOffset" : 678908
        },
        {
            "buffer" : 0,
            "byteLength" : 488,
            "byteOffset" : 679640
        },
        {
            "buffer" : 0,
            "byteLength" : 456,
            "byteOffset" : 680128
        },
        {
            "buffer" : 0,
            "byteLength" : 624,
            "byteOffset" : 680584
        },
        {
            "buffer" : 0,
            "byteLength" : 624,
            "byteOffset" : 681208
        },
        {
            "buffer" : 0,
            "byteLength" : 416,
            "byteOffset" : 681832
        },
        {
            "buffer" : 0,
            "byteLength" : 1204,
            "byteOffset" : 682248
        },
        {
            "buffer" : 0,
            "byteLength" : 4816,
            "byteOffset" : 683452
        }
    ],
    "samplers" : [
        {
            "magFilter" : 9729,
            "minFilter" : 9987
        }
    ],
    "buffers" : [
        {
            "byteLength" : 688268,
            "uri" : "data:application/octet-stream;base64,"
        }
    ]
}
