{
    "asset" : {
        "generator" : "Khronos glTF Blender I/O v1.7.33",
        "version" : "2.0"
    },
    "scene" : 0,
    "scenes" : [
        {
            "name" : "Scene",
            "nodes" : [
                0
            ]
        }
    ],
    "nodes" : [
        {
            "mesh" : 0,
            "name" : "Torus"
        }
    ],
    "materials" : [
        {
            "doubleSided" : true,
            "name" : "Material",
            "pbrMetallicRoughness" : {}
        }
    ],
    "meshes" : [
        {
            "name" : "Torus",
            "primitives" : [
                {
                    "attributes" : {
                        "POSITION" : 0,
                        "NORMAL" : 1,
                        "TEXCOORD_0" : 2
                    },
                    "indices" : 3,
                    "material" : 0
                }
            ]
        }
    ],
    "accessors" : [
        {
            "bufferView" : 0,
            "componentType" : 5126,
            "count" : 3161,
            "max" : [
                2.018542766571045,
                0.028660258278250694,
                2.018542528152466
            ],
            "min" : [
                -2.018542528152466,
                -0.028660258278250694,
                -2.018542766571045
            ],
            "type" : "VEC3"
        },
        {
            "bufferView" : 1,
            "componentType" : 5126,
            "count" : 3161,
            "type" : "VEC3"
        },
        {
            "bufferView" : 2,
            "componentType" : 5126,
            "count" : 3161,
            "type" : "VEC2"
        },
        {
            "bufferView" : 3,
            "componentType" : 5123,
            "count" : 13824,
            "type" : "SCALAR"
        }
    ],
    "bufferViews" : [
        {
            "buffer" : 0,
            "byteLength" : 37932,
            "byteOffset" : 0
        },
        {
            "buffer" : 0,
            "byteLength" : 37932,
            "byteOffset" : 37932
        },
        {
            "buffer" : 0,
            "byteLength" : 25288,
            "byteOffset" : 75864
        },
        {
            "buffer" : 0,
            "byteLength" : 27648,
            "byteOffset" : 101152
        }
    ],
    "buffers" : [
        {
            "byteLength" : 128800,
            "uri" : "data:application/octet-stream;base64,"
        }
    ]
}
